<?xml version="1.0" encoding="UTF-8" standalone="no"?>
<!DOCTYPE svg PUBLIC "-//W3C//DTD SVG 1.1//EN"
 "http://www.w3.org/Graphics/SVG/1.1/DTD/svg11.dtd">
<!-- Generated by graphviz version 2.47.3 (20210619.1520)
 -->
<!-- Title: dependencies Pages: 1 -->
<svg width="2606pt" height="247pt"
 viewBox="0.00 0.00 2606.00 246.80" xmlns="http://www.w3.org/2000/svg" xmlns:xlink="http://www.w3.org/1999/xlink">
<g id="graph0" class="graph" transform="scale(1 1) rotate(0) translate(4 242.8)">
<title>dependencies</title>
<polygon fill="white" stroke="transparent" points="-4,4 -4,-242.8 2602,-242.8 2602,4 -4,4"/>
<text text-anchor="middle" x="1299" y="-8.2" font-family="sans-serif" font-size="14.00">dependencies</text>
<g id="clust1" class="cluster">
<title>cluster_AppModule</title>
<polygon fill="none" stroke="black" stroke-dasharray="1,5" points="8,-32.8 8,-230.8 2590,-230.8 2590,-32.8 8,-32.8"/>
</g>
<g id="clust19" class="cluster">
<title>cluster_AppModule_imports</title>
<polygon fill="none" stroke="black" points="2438,-40.8 2438,-92.8 2582,-92.8 2582,-40.8 2438,-40.8"/>
</g>
<g id="clust21" class="cluster">
<title>cluster_AppModule_bootstrap</title>
<polygon fill="none" stroke="black" points="1294,-170.8 1294,-222.8 1418,-222.8 1418,-170.8 1294,-170.8"/>
</g>
<g id="clust2" class="cluster">
<title>cluster_AppModule_declarations</title>
<polygon fill="none" stroke="black" points="16,-40.8 16,-92.8 2430,-92.8 2430,-40.8 16,-40.8"/>
</g>
<!-- AlertasComponent -->
<g id="node1" class="node">
<title>AlertasComponent</title>
<polygon fill="#ffffb3" stroke="black" points="2421.75,-84.8 2300.25,-84.8 2300.25,-48.8 2421.75,-48.8 2421.75,-84.8"/>
<text text-anchor="middle" x="2361" y="-62.6" font-family="Times,serif" font-size="14.00">AlertasComponent</text>
</g>
<!-- AppModule -->
<g id="node17" class="node">
<title>AppModule</title>
<polygon fill="#8dd3c7" stroke="black" points="1397.66,-149.8 1394.66,-153.8 1373.66,-153.8 1370.66,-149.8 1314.34,-149.8 1314.34,-113.8 1397.66,-113.8 1397.66,-149.8"/>
<text text-anchor="middle" x="1356" y="-127.6" font-family="Times,serif" font-size="14.00">AppModule</text>
</g>
<!-- AlertasComponent&#45;&gt;AppModule -->
<g id="edge1" class="edge">
<title>AlertasComponent&#45;&gt;AppModule</title>
<path fill="none" stroke="black" d="M2361,-84.96C2361,-107.15 2361,-141.8 2361,-141.8 2361,-141.8 1407.9,-141.8 1407.9,-141.8"/>
<polygon fill="black" stroke="black" points="1407.9,-138.3 1397.9,-141.8 1407.9,-145.3 1407.9,-138.3"/>
</g>
<!-- AppComponent -->
<g id="node2" class="node">
<title>AppComponent</title>
<polygon fill="#ffffb3" stroke="black" points="2281.94,-84.8 2176.06,-84.8 2176.06,-48.8 2281.94,-48.8 2281.94,-84.8"/>
<text text-anchor="middle" x="2229" y="-62.6" font-family="Times,serif" font-size="14.00">AppComponent</text>
</g>
<!-- AppComponent&#45;&gt;AppModule -->
<g id="edge2" class="edge">
<title>AppComponent&#45;&gt;AppModule</title>
<path fill="none" stroke="black" d="M2229,-85.08C2229,-106.12 2229,-137.8 2229,-137.8 2229,-137.8 1407.81,-137.8 1407.81,-137.8"/>
<polygon fill="black" stroke="black" points="1407.81,-134.3 1397.81,-137.8 1407.81,-141.3 1407.81,-134.3"/>
</g>
<!-- CadastrarComponent -->
<g id="node3" class="node">
<title>CadastrarComponent</title>
<polygon fill="#ffffb3" stroke="black" points="2158.47,-84.8 2023.53,-84.8 2023.53,-48.8 2158.47,-48.8 2158.47,-84.8"/>
<text text-anchor="middle" x="2091" y="-62.6" font-family="Times,serif" font-size="14.00">CadastrarComponent</text>
</g>
<!-- CadastrarComponent&#45;&gt;AppModule -->
<g id="edge3" class="edge">
<title>CadastrarComponent&#45;&gt;AppModule</title>
<path fill="none" stroke="black" d="M2091,-85.11C2091,-104.95 2091,-133.8 2091,-133.8 2091,-133.8 1407.89,-133.8 1407.89,-133.8"/>
<polygon fill="black" stroke="black" points="1407.89,-130.3 1397.89,-133.8 1407.89,-137.3 1407.89,-130.3"/>
</g>
<!-- CadastrarEventoComponent -->
<g id="node4" class="node">
<title>CadastrarEventoComponent</title>
<polygon fill="#ffffb3" stroke="black" points="2005.13,-84.8 1830.87,-84.8 1830.87,-48.8 2005.13,-48.8 2005.13,-84.8"/>
<text text-anchor="middle" x="1918" y="-62.6" font-family="Times,serif" font-size="14.00">CadastrarEventoComponent</text>
</g>
<!-- CadastrarEventoComponent&#45;&gt;AppModule -->
<g id="edge4" class="edge">
<title>CadastrarEventoComponent&#45;&gt;AppModule</title>
<path fill="none" stroke="black" d="M1918,-85.02C1918,-103.63 1918,-129.8 1918,-129.8 1918,-129.8 1407.78,-129.8 1407.78,-129.8"/>
<polygon fill="black" stroke="black" points="1407.78,-126.3 1397.78,-129.8 1407.78,-133.3 1407.78,-126.3"/>
</g>
<!-- EntrarComponent -->
<g id="node5" class="node">
<title>EntrarComponent</title>
<polygon fill="#ffffb3" stroke="black" points="1813.31,-84.8 1696.69,-84.8 1696.69,-48.8 1813.31,-48.8 1813.31,-84.8"/>
<text text-anchor="middle" x="1755" y="-62.6" font-family="Times,serif" font-size="14.00">EntrarComponent</text>
</g>
<!-- EntrarComponent&#45;&gt;AppModule -->
<g id="edge5" class="edge">
<title>EntrarComponent&#45;&gt;AppModule</title>
<path fill="none" stroke="black" d="M1755,-84.82C1755,-102.17 1755,-125.8 1755,-125.8 1755,-125.8 1407.95,-125.8 1407.95,-125.8"/>
<polygon fill="black" stroke="black" points="1407.95,-122.3 1397.95,-125.8 1407.95,-129.3 1407.95,-122.3"/>
</g>
<!-- HomeComponent -->
<g id="node6" class="node">
<title>HomeComponent</title>
<polygon fill="#ffffb3" stroke="black" points="1678.55,-84.8 1563.45,-84.8 1563.45,-48.8 1678.55,-48.8 1678.55,-84.8"/>
<text text-anchor="middle" x="1621" y="-62.6" font-family="Times,serif" font-size="14.00">HomeComponent</text>
</g>
<!-- HomeComponent&#45;&gt;AppModule -->
<g id="edge6" class="edge">
<title>HomeComponent&#45;&gt;AppModule</title>
<path fill="none" stroke="black" d="M1621,-84.81C1621,-100.85 1621,-121.8 1621,-121.8 1621,-121.8 1407.7,-121.8 1407.7,-121.8"/>
<polygon fill="black" stroke="black" points="1407.7,-118.3 1397.7,-121.8 1407.7,-125.3 1407.7,-118.3"/>
</g>
<!-- InicioComponent -->
<g id="node7" class="node">
<title>InicioComponent</title>
<polygon fill="#ffffb3" stroke="black" points="1544.99,-84.8 1431.01,-84.8 1431.01,-48.8 1544.99,-48.8 1544.99,-84.8"/>
<text text-anchor="middle" x="1488" y="-62.6" font-family="Times,serif" font-size="14.00">InicioComponent</text>
</g>
<!-- InicioComponent&#45;&gt;AppModule -->
<g id="edge7" class="edge">
<title>InicioComponent&#45;&gt;AppModule</title>
<path fill="none" stroke="black" d="M1488,-84.92C1488,-99.58 1488,-117.8 1488,-117.8 1488,-117.8 1407.77,-117.8 1407.77,-117.8"/>
<polygon fill="black" stroke="black" points="1407.77,-114.3 1397.77,-117.8 1407.77,-121.3 1407.77,-114.3"/>
</g>
<!-- MenuComponent -->
<g id="node8" class="node">
<title>MenuComponent</title>
<polygon fill="#ffffb3" stroke="black" points="1412.99,-84.8 1299.01,-84.8 1299.01,-48.8 1412.99,-48.8 1412.99,-84.8"/>
<text text-anchor="middle" x="1356" y="-62.6" font-family="Times,serif" font-size="14.00">MenuComponent</text>
</g>
<!-- MenuComponent&#45;&gt;AppModule -->
<g id="edge8" class="edge">
<title>MenuComponent&#45;&gt;AppModule</title>
<path fill="none" stroke="black" d="M1356,-84.91C1356,-84.91 1356,-103.79 1356,-103.79"/>
<polygon fill="black" stroke="black" points="1352.5,-103.79 1356,-113.79 1359.5,-103.79 1352.5,-103.79"/>
</g>
<!-- PostagemDeleteComponent -->
<g id="node9" class="node">
<title>PostagemDeleteComponent</title>
<polygon fill="#ffffb3" stroke="black" points="1281.3,-84.8 1108.7,-84.8 1108.7,-48.8 1281.3,-48.8 1281.3,-84.8"/>
<text text-anchor="middle" x="1195" y="-62.6" font-family="Times,serif" font-size="14.00">PostagemDeleteComponent</text>
</g>
<!-- PostagemDeleteComponent&#45;&gt;AppModule -->
<g id="edge9" class="edge">
<title>PostagemDeleteComponent&#45;&gt;AppModule</title>
<path fill="none" stroke="black" d="M1195,-84.92C1195,-99.58 1195,-117.8 1195,-117.8 1195,-117.8 1304.12,-117.8 1304.12,-117.8"/>
<polygon fill="black" stroke="black" points="1304.12,-121.3 1314.12,-117.8 1304.12,-114.3 1304.12,-121.3"/>
</g>
<!-- PostagemEditComponent -->
<g id="node10" class="node">
<title>PostagemEditComponent</title>
<polygon fill="#ffffb3" stroke="black" points="1090.6,-84.8 931.4,-84.8 931.4,-48.8 1090.6,-48.8 1090.6,-84.8"/>
<text text-anchor="middle" x="1011" y="-62.6" font-family="Times,serif" font-size="14.00">PostagemEditComponent</text>
</g>
<!-- PostagemEditComponent&#45;&gt;AppModule -->
<g id="edge10" class="edge">
<title>PostagemEditComponent&#45;&gt;AppModule</title>
<path fill="none" stroke="black" d="M1011,-84.81C1011,-100.85 1011,-121.8 1011,-121.8 1011,-121.8 1304.04,-121.8 1304.04,-121.8"/>
<polygon fill="black" stroke="black" points="1304.04,-125.3 1314.04,-121.8 1304.04,-118.3 1304.04,-125.3"/>
</g>
<!-- RodapeComponent -->
<g id="node11" class="node">
<title>RodapeComponent</title>
<polygon fill="#ffffb3" stroke="black" points="913.1,-84.8 788.9,-84.8 788.9,-48.8 913.1,-48.8 913.1,-84.8"/>
<text text-anchor="middle" x="851" y="-62.6" font-family="Times,serif" font-size="14.00">RodapeComponent</text>
</g>
<!-- RodapeComponent&#45;&gt;AppModule -->
<g id="edge11" class="edge">
<title>RodapeComponent&#45;&gt;AppModule</title>
<path fill="none" stroke="black" d="M851,-84.82C851,-102.17 851,-125.8 851,-125.8 851,-125.8 1304.24,-125.8 1304.24,-125.8"/>
<polygon fill="black" stroke="black" points="1304.24,-129.3 1314.24,-125.8 1304.24,-122.3 1304.24,-129.3"/>
</g>
<!-- TecnologiaComponent -->
<g id="node12" class="node">
<title>TecnologiaComponent</title>
<polygon fill="#ffffb3" stroke="black" points="771.31,-84.8 626.69,-84.8 626.69,-48.8 771.31,-48.8 771.31,-84.8"/>
<text text-anchor="middle" x="699" y="-62.6" font-family="Times,serif" font-size="14.00">TecnologiaComponent</text>
</g>
<!-- TecnologiaComponent&#45;&gt;AppModule -->
<g id="edge12" class="edge">
<title>TecnologiaComponent&#45;&gt;AppModule</title>
<path fill="none" stroke="black" d="M699,-85.02C699,-103.63 699,-129.8 699,-129.8 699,-129.8 1304.15,-129.8 1304.15,-129.8"/>
<polygon fill="black" stroke="black" points="1304.15,-133.3 1314.15,-129.8 1304.15,-126.3 1304.15,-133.3"/>
</g>
<!-- TemaComponent -->
<g id="node13" class="node">
<title>TemaComponent</title>
<polygon fill="#ffffb3" stroke="black" points="608.7,-84.8 495.3,-84.8 495.3,-48.8 608.7,-48.8 608.7,-84.8"/>
<text text-anchor="middle" x="552" y="-62.6" font-family="Times,serif" font-size="14.00">TemaComponent</text>
</g>
<!-- TemaComponent&#45;&gt;AppModule -->
<g id="edge13" class="edge">
<title>TemaComponent&#45;&gt;AppModule</title>
<path fill="none" stroke="black" d="M552,-85.11C552,-104.95 552,-133.8 552,-133.8 552,-133.8 1304.19,-133.8 1304.19,-133.8"/>
<polygon fill="black" stroke="black" points="1304.19,-137.3 1314.19,-133.8 1304.19,-130.3 1304.19,-137.3"/>
</g>
<!-- TemaDeleteComponent -->
<g id="node14" class="node">
<title>TemaDeleteComponent</title>
<polygon fill="#ffffb3" stroke="black" points="477.74,-84.8 328.26,-84.8 328.26,-48.8 477.74,-48.8 477.74,-84.8"/>
<text text-anchor="middle" x="403" y="-62.6" font-family="Times,serif" font-size="14.00">TemaDeleteComponent</text>
</g>
<!-- TemaDeleteComponent&#45;&gt;AppModule -->
<g id="edge14" class="edge">
<title>TemaDeleteComponent&#45;&gt;AppModule</title>
<path fill="none" stroke="black" d="M403,-85.08C403,-106.12 403,-137.8 403,-137.8 403,-137.8 1304.13,-137.8 1304.13,-137.8"/>
<polygon fill="black" stroke="black" points="1304.13,-141.3 1314.13,-137.8 1304.13,-134.3 1304.13,-141.3"/>
</g>
<!-- TemaEditComponent -->
<g id="node15" class="node">
<title>TemaEditComponent</title>
<polygon fill="#ffffb3" stroke="black" points="310.04,-84.8 173.96,-84.8 173.96,-48.8 310.04,-48.8 310.04,-84.8"/>
<text text-anchor="middle" x="242" y="-62.6" font-family="Times,serif" font-size="14.00">TemaEditComponent</text>
</g>
<!-- TemaEditComponent&#45;&gt;AppModule -->
<g id="edge15" class="edge">
<title>TemaEditComponent&#45;&gt;AppModule</title>
<path fill="none" stroke="black" d="M242,-84.96C242,-107.15 242,-141.8 242,-141.8 242,-141.8 1304.03,-141.8 1304.03,-141.8"/>
<polygon fill="black" stroke="black" points="1304.03,-145.3 1314.03,-141.8 1304.03,-138.3 1304.03,-145.3"/>
</g>
<!-- UserEditComponent -->
<g id="node16" class="node">
<title>UserEditComponent</title>
<polygon fill="#ffffb3" stroke="black" points="155.59,-84.8 24.41,-84.8 24.41,-48.8 155.59,-48.8 155.59,-84.8"/>
<text text-anchor="middle" x="90" y="-62.6" font-family="Times,serif" font-size="14.00">UserEditComponent</text>
</g>
<!-- UserEditComponent&#45;&gt;AppModule -->
<g id="edge16" class="edge">
<title>UserEditComponent&#45;&gt;AppModule</title>
<path fill="none" stroke="black" d="M90,-85.12C90,-108.46 90,-145.8 90,-145.8 90,-145.8 1304.24,-145.8 1304.24,-145.8"/>
<polygon fill="black" stroke="black" points="1304.24,-149.3 1314.24,-145.8 1304.24,-142.3 1304.24,-149.3"/>
</g>
<!-- AppComponent  -->
<g id="node19" class="node">
<title>AppComponent </title>
<polygon fill="#80b1d3" stroke="black" points="1410.44,-214.8 1301.56,-214.8 1301.56,-178.8 1410.44,-178.8 1410.44,-214.8"/>
<text text-anchor="middle" x="1356" y="-192.6" font-family="Times,serif" font-size="14.00">AppComponent </text>
</g>
<!-- AppModule&#45;&gt;AppComponent  -->
<g id="edge18" class="edge">
<title>AppModule&#45;&gt;AppComponent </title>
<path fill="none" stroke="black" stroke-dasharray="1,5" d="M1356,-149.91C1356,-149.91 1356,-168.79 1356,-168.79"/>
<polygon fill="black" stroke="black" points="1352.5,-168.79 1356,-178.79 1359.5,-168.79 1352.5,-168.79"/>
</g>
<!-- AppRoutingModule -->
<g id="node18" class="node">
<title>AppRoutingModule</title>
<polygon fill="#8dd3c7" stroke="black" points="2574.27,-84.8 2571.27,-88.8 2550.27,-88.8 2547.27,-84.8 2445.73,-84.8 2445.73,-48.8 2574.27,-48.8 2574.27,-84.8"/>
<text text-anchor="middle" x="2510" y="-62.6" font-family="Times,serif" font-size="14.00">AppRoutingModule</text>
</g>
<!-- AppRoutingModule&#45;&gt;AppModule -->
<g id="edge17" class="edge">
<title>AppRoutingModule&#45;&gt;AppModule</title>
<path fill="none" stroke="black" d="M2510,-85.12C2510,-108.46 2510,-145.8 2510,-145.8 2510,-145.8 1407.75,-145.8 1407.75,-145.8"/>
<polygon fill="black" stroke="black" points="1407.75,-142.3 1397.75,-145.8 1407.75,-149.3 1407.75,-142.3"/>
</g>
</g>
</svg>
