<?xml version="1.0" encoding="UTF-8" standalone="no"?>
<!DOCTYPE svg PUBLIC "-//W3C//DTD SVG 1.1//EN"
 "http://www.w3.org/Graphics/SVG/1.1/DTD/svg11.dtd">
<!-- Generated by graphviz version 2.47.3 (20210619.1520)
 -->
<!-- Title: dependencies Pages: 1 -->
<svg width="2606pt" height="247pt"
 viewBox="0.00 0.00 2606.00 246.80" xmlns="http://www.w3.org/2000/svg" xmlns:xlink="http://www.w3.org/1999/xlink">
<g id="graph0" class="graph" transform="scale(1 1) rotate(0) translate(4 242.8)">
<title>dependencies</title>
<polygon fill="white" stroke="transparent" points="-4,4 -4,-242.8 2602,-242.8 2602,4 -4,4"/>
<text text-anchor="middle" x="1299" y="-8.2" font-family="sans-serif" font-size="14.00">dependencies</text>
<g id="clust1" class="cluster">
<title>cluster_AppModule</title>
<polygon fill="none" stroke="black" stroke-dasharray="1,5" points="8,-32.8 8,-230.8 2590,-230.8 2590,-32.8 8,-32.8"/>
</g>
<g id="clust2" class="cluster">
<title>cluster_AppModule_declarations</title>
<polygon fill="none" stroke="black" points="168,-40.8 168,-92.8 2582,-92.8 2582,-40.8 168,-40.8"/>
</g>
<g id="clust19" class="cluster">
<title>cluster_AppModule_imports</title>
<polygon fill="none" stroke="black" points="16,-40.8 16,-92.8 160,-92.8 160,-40.8 16,-40.8"/>
</g>
<g id="clust21" class="cluster">
<title>cluster_AppModule_bootstrap</title>
<polygon fill="none" stroke="black" points="1285,-170.8 1285,-222.8 1409,-222.8 1409,-170.8 1285,-170.8"/>
</g>
<!-- AlertasComponent -->
<g id="node1" class="node">
<title>AlertasComponent</title>
<polygon fill="#ffffb3" stroke="black" points="2573.75,-84.8 2452.25,-84.8 2452.25,-48.8 2573.75,-48.8 2573.75,-84.8"/>
<text text-anchor="middle" x="2513" y="-62.6" font-family="Times,serif" font-size="14.00">AlertasComponent</text>
</g>
<!-- AppModule -->
<g id="node17" class="node">
<title>AppModule</title>
<polygon fill="#8dd3c7" stroke="black" points="1388.66,-149.8 1385.66,-153.8 1364.66,-153.8 1361.66,-149.8 1305.34,-149.8 1305.34,-113.8 1388.66,-113.8 1388.66,-149.8"/>
<text text-anchor="middle" x="1347" y="-127.6" font-family="Times,serif" font-size="14.00">AppModule</text>
</g>
<!-- AlertasComponent&#45;&gt;AppModule -->
<g id="edge1" class="edge">
<title>AlertasComponent&#45;&gt;AppModule</title>
<path fill="none" stroke="black" d="M2513,-85.12C2513,-108.46 2513,-145.8 2513,-145.8 2513,-145.8 1398.84,-145.8 1398.84,-145.8"/>
<polygon fill="black" stroke="black" points="1398.84,-142.3 1388.84,-145.8 1398.84,-149.3 1398.84,-142.3"/>
</g>
<!-- AppComponent -->
<g id="node2" class="node">
<title>AppComponent</title>
<polygon fill="#ffffb3" stroke="black" points="2433.94,-84.8 2328.06,-84.8 2328.06,-48.8 2433.94,-48.8 2433.94,-84.8"/>
<text text-anchor="middle" x="2381" y="-62.6" font-family="Times,serif" font-size="14.00">AppComponent</text>
</g>
<!-- AppComponent&#45;&gt;AppModule -->
<g id="edge2" class="edge">
<title>AppComponent&#45;&gt;AppModule</title>
<path fill="none" stroke="black" d="M2381,-84.96C2381,-107.15 2381,-141.8 2381,-141.8 2381,-141.8 1398.81,-141.8 1398.81,-141.8"/>
<polygon fill="black" stroke="black" points="1398.81,-138.3 1388.81,-141.8 1398.81,-145.3 1398.81,-138.3"/>
</g>
<!-- CadastrarComponent -->
<g id="node3" class="node">
<title>CadastrarComponent</title>
<polygon fill="#ffffb3" stroke="black" points="2310.47,-84.8 2175.53,-84.8 2175.53,-48.8 2310.47,-48.8 2310.47,-84.8"/>
<text text-anchor="middle" x="2243" y="-62.6" font-family="Times,serif" font-size="14.00">CadastrarComponent</text>
</g>
<!-- CadastrarComponent&#45;&gt;AppModule -->
<g id="edge3" class="edge">
<title>CadastrarComponent&#45;&gt;AppModule</title>
<path fill="none" stroke="black" d="M2243,-85.08C2243,-106.12 2243,-137.8 2243,-137.8 2243,-137.8 1398.72,-137.8 1398.72,-137.8"/>
<polygon fill="black" stroke="black" points="1398.72,-134.3 1388.72,-137.8 1398.72,-141.3 1398.72,-134.3"/>
</g>
<!-- CadastrarEventoComponent -->
<g id="node4" class="node">
<title>CadastrarEventoComponent</title>
<polygon fill="#ffffb3" stroke="black" points="2157.13,-84.8 1982.87,-84.8 1982.87,-48.8 2157.13,-48.8 2157.13,-84.8"/>
<text text-anchor="middle" x="2070" y="-62.6" font-family="Times,serif" font-size="14.00">CadastrarEventoComponent</text>
</g>
<!-- CadastrarEventoComponent&#45;&gt;AppModule -->
<g id="edge4" class="edge">
<title>CadastrarEventoComponent&#45;&gt;AppModule</title>
<path fill="none" stroke="black" d="M2070,-85.11C2070,-104.95 2070,-133.8 2070,-133.8 2070,-133.8 1398.73,-133.8 1398.73,-133.8"/>
<polygon fill="black" stroke="black" points="1398.73,-130.3 1388.73,-133.8 1398.73,-137.3 1398.73,-130.3"/>
</g>
<!-- EntrarComponent -->
<g id="node5" class="node">
<title>EntrarComponent</title>
<polygon fill="#ffffb3" stroke="black" points="1965.31,-84.8 1848.69,-84.8 1848.69,-48.8 1965.31,-48.8 1965.31,-84.8"/>
<text text-anchor="middle" x="1907" y="-62.6" font-family="Times,serif" font-size="14.00">EntrarComponent</text>
</g>
<!-- EntrarComponent&#45;&gt;AppModule -->
<g id="edge5" class="edge">
<title>EntrarComponent&#45;&gt;AppModule</title>
<path fill="none" stroke="black" d="M1907,-85.02C1907,-103.63 1907,-129.8 1907,-129.8 1907,-129.8 1399.09,-129.8 1399.09,-129.8"/>
<polygon fill="black" stroke="black" points="1399.09,-126.3 1389.09,-129.8 1399.09,-133.3 1399.09,-126.3"/>
</g>
<!-- HomeComponent -->
<g id="node6" class="node">
<title>HomeComponent</title>
<polygon fill="#ffffb3" stroke="black" points="1830.55,-84.8 1715.45,-84.8 1715.45,-48.8 1830.55,-48.8 1830.55,-84.8"/>
<text text-anchor="middle" x="1773" y="-62.6" font-family="Times,serif" font-size="14.00">HomeComponent</text>
</g>
<!-- HomeComponent&#45;&gt;AppModule -->
<g id="edge6" class="edge">
<title>HomeComponent&#45;&gt;AppModule</title>
<path fill="none" stroke="black" d="M1773,-84.82C1773,-102.17 1773,-125.8 1773,-125.8 1773,-125.8 1399.01,-125.8 1399.01,-125.8"/>
<polygon fill="black" stroke="black" points="1399.01,-122.3 1389.01,-125.8 1399.01,-129.3 1399.01,-122.3"/>
</g>
<!-- InicioComponent -->
<g id="node7" class="node">
<title>InicioComponent</title>
<polygon fill="#ffffb3" stroke="black" points="1696.99,-84.8 1583.01,-84.8 1583.01,-48.8 1696.99,-48.8 1696.99,-84.8"/>
<text text-anchor="middle" x="1640" y="-62.6" font-family="Times,serif" font-size="14.00">InicioComponent</text>
</g>
<!-- InicioComponent&#45;&gt;AppModule -->
<g id="edge7" class="edge">
<title>InicioComponent&#45;&gt;AppModule</title>
<path fill="none" stroke="black" d="M1640,-84.81C1640,-100.85 1640,-121.8 1640,-121.8 1640,-121.8 1398.67,-121.8 1398.67,-121.8"/>
<polygon fill="black" stroke="black" points="1398.67,-118.3 1388.67,-121.8 1398.67,-125.3 1398.67,-118.3"/>
</g>
<!-- MenuComponent -->
<g id="node8" class="node">
<title>MenuComponent</title>
<polygon fill="#ffffb3" stroke="black" points="1564.99,-84.8 1451.01,-84.8 1451.01,-48.8 1564.99,-48.8 1564.99,-84.8"/>
<text text-anchor="middle" x="1508" y="-62.6" font-family="Times,serif" font-size="14.00">MenuComponent</text>
</g>
<!-- MenuComponent&#45;&gt;AppModule -->
<g id="edge8" class="edge">
<title>MenuComponent&#45;&gt;AppModule</title>
<path fill="none" stroke="black" d="M1508,-84.92C1508,-99.58 1508,-117.8 1508,-117.8 1508,-117.8 1398.88,-117.8 1398.88,-117.8"/>
<polygon fill="black" stroke="black" points="1398.88,-114.3 1388.88,-117.8 1398.88,-121.3 1398.88,-114.3"/>
</g>
<!-- PostagemDeleteComponent -->
<g id="node9" class="node">
<title>PostagemDeleteComponent</title>
<polygon fill="#ffffb3" stroke="black" points="1433.3,-84.8 1260.7,-84.8 1260.7,-48.8 1433.3,-48.8 1433.3,-84.8"/>
<text text-anchor="middle" x="1347" y="-62.6" font-family="Times,serif" font-size="14.00">PostagemDeleteComponent</text>
</g>
<!-- PostagemDeleteComponent&#45;&gt;AppModule -->
<g id="edge9" class="edge">
<title>PostagemDeleteComponent&#45;&gt;AppModule</title>
<path fill="none" stroke="black" d="M1347,-84.91C1347,-84.91 1347,-103.79 1347,-103.79"/>
<polygon fill="black" stroke="black" points="1343.5,-103.79 1347,-113.79 1350.5,-103.79 1343.5,-103.79"/>
</g>
<!-- PostagemEditComponent -->
<g id="node10" class="node">
<title>PostagemEditComponent</title>
<polygon fill="#ffffb3" stroke="black" points="1242.6,-84.8 1083.4,-84.8 1083.4,-48.8 1242.6,-48.8 1242.6,-84.8"/>
<text text-anchor="middle" x="1163" y="-62.6" font-family="Times,serif" font-size="14.00">PostagemEditComponent</text>
</g>
<!-- PostagemEditComponent&#45;&gt;AppModule -->
<g id="edge10" class="edge">
<title>PostagemEditComponent&#45;&gt;AppModule</title>
<path fill="none" stroke="black" d="M1163,-84.92C1163,-99.58 1163,-117.8 1163,-117.8 1163,-117.8 1295.25,-117.8 1295.25,-117.8"/>
<polygon fill="black" stroke="black" points="1295.25,-121.3 1305.25,-117.8 1295.25,-114.3 1295.25,-121.3"/>
</g>
<!-- RodapeComponent -->
<g id="node11" class="node">
<title>RodapeComponent</title>
<polygon fill="#ffffb3" stroke="black" points="1065.1,-84.8 940.9,-84.8 940.9,-48.8 1065.1,-48.8 1065.1,-84.8"/>
<text text-anchor="middle" x="1003" y="-62.6" font-family="Times,serif" font-size="14.00">RodapeComponent</text>
</g>
<!-- RodapeComponent&#45;&gt;AppModule -->
<g id="edge11" class="edge">
<title>RodapeComponent&#45;&gt;AppModule</title>
<path fill="none" stroke="black" d="M1003,-84.81C1003,-100.85 1003,-121.8 1003,-121.8 1003,-121.8 1295.16,-121.8 1295.16,-121.8"/>
<polygon fill="black" stroke="black" points="1295.16,-125.3 1305.16,-121.8 1295.16,-118.3 1295.16,-125.3"/>
</g>
<!-- TecnologiaComponent -->
<g id="node12" class="node">
<title>TecnologiaComponent</title>
<polygon fill="#ffffb3" stroke="black" points="923.31,-84.8 778.69,-84.8 778.69,-48.8 923.31,-48.8 923.31,-84.8"/>
<text text-anchor="middle" x="851" y="-62.6" font-family="Times,serif" font-size="14.00">TecnologiaComponent</text>
</g>
<!-- TecnologiaComponent&#45;&gt;AppModule -->
<g id="edge12" class="edge">
<title>TecnologiaComponent&#45;&gt;AppModule</title>
<path fill="none" stroke="black" d="M851,-84.82C851,-102.17 851,-125.8 851,-125.8 851,-125.8 1295.14,-125.8 1295.14,-125.8"/>
<polygon fill="black" stroke="black" points="1295.14,-129.3 1305.14,-125.8 1295.14,-122.3 1295.14,-129.3"/>
</g>
<!-- TemaComponent -->
<g id="node13" class="node">
<title>TemaComponent</title>
<polygon fill="#ffffb3" stroke="black" points="760.7,-84.8 647.3,-84.8 647.3,-48.8 760.7,-48.8 760.7,-84.8"/>
<text text-anchor="middle" x="704" y="-62.6" font-family="Times,serif" font-size="14.00">TemaComponent</text>
</g>
<!-- TemaComponent&#45;&gt;AppModule -->
<g id="edge13" class="edge">
<title>TemaComponent&#45;&gt;AppModule</title>
<path fill="none" stroke="black" d="M704,-85.02C704,-103.63 704,-129.8 704,-129.8 704,-129.8 1295.31,-129.8 1295.31,-129.8"/>
<polygon fill="black" stroke="black" points="1295.31,-133.3 1305.31,-129.8 1295.31,-126.3 1295.31,-133.3"/>
</g>
<!-- TemaDeleteComponent -->
<g id="node14" class="node">
<title>TemaDeleteComponent</title>
<polygon fill="#ffffb3" stroke="black" points="629.74,-84.8 480.26,-84.8 480.26,-48.8 629.74,-48.8 629.74,-84.8"/>
<text text-anchor="middle" x="555" y="-62.6" font-family="Times,serif" font-size="14.00">TemaDeleteComponent</text>
</g>
<!-- TemaDeleteComponent&#45;&gt;AppModule -->
<g id="edge14" class="edge">
<title>TemaDeleteComponent&#45;&gt;AppModule</title>
<path fill="none" stroke="black" d="M555,-85.11C555,-104.95 555,-133.8 555,-133.8 555,-133.8 1295.26,-133.8 1295.26,-133.8"/>
<polygon fill="black" stroke="black" points="1295.26,-137.3 1305.26,-133.8 1295.26,-130.3 1295.26,-137.3"/>
</g>
<!-- TemaEditComponent -->
<g id="node15" class="node">
<title>TemaEditComponent</title>
<polygon fill="#ffffb3" stroke="black" points="462.04,-84.8 325.96,-84.8 325.96,-48.8 462.04,-48.8 462.04,-84.8"/>
<text text-anchor="middle" x="394" y="-62.6" font-family="Times,serif" font-size="14.00">TemaEditComponent</text>
</g>
<!-- TemaEditComponent&#45;&gt;AppModule -->
<g id="edge15" class="edge">
<title>TemaEditComponent&#45;&gt;AppModule</title>
<path fill="none" stroke="black" d="M394,-85.08C394,-106.12 394,-137.8 394,-137.8 394,-137.8 1295.13,-137.8 1295.13,-137.8"/>
<polygon fill="black" stroke="black" points="1295.13,-141.3 1305.13,-137.8 1295.13,-134.3 1295.13,-141.3"/>
</g>
<!-- UserEditComponent -->
<g id="node16" class="node">
<title>UserEditComponent</title>
<polygon fill="#ffffb3" stroke="black" points="307.59,-84.8 176.41,-84.8 176.41,-48.8 307.59,-48.8 307.59,-84.8"/>
<text text-anchor="middle" x="242" y="-62.6" font-family="Times,serif" font-size="14.00">UserEditComponent</text>
</g>
<!-- UserEditComponent&#45;&gt;AppModule -->
<g id="edge16" class="edge">
<title>UserEditComponent&#45;&gt;AppModule</title>
<path fill="none" stroke="black" d="M242,-84.96C242,-107.15 242,-141.8 242,-141.8 242,-141.8 1295.03,-141.8 1295.03,-141.8"/>
<polygon fill="black" stroke="black" points="1295.03,-145.3 1305.03,-141.8 1295.03,-138.3 1295.03,-145.3"/>
</g>
<!-- AppComponent  -->
<g id="node19" class="node">
<title>AppComponent </title>
<polygon fill="#80b1d3" stroke="black" points="1401.44,-214.8 1292.56,-214.8 1292.56,-178.8 1401.44,-178.8 1401.44,-214.8"/>
<text text-anchor="middle" x="1347" y="-192.6" font-family="Times,serif" font-size="14.00">AppComponent </text>
</g>
<!-- AppModule&#45;&gt;AppComponent  -->
<g id="edge18" class="edge">
<title>AppModule&#45;&gt;AppComponent </title>
<path fill="none" stroke="black" stroke-dasharray="1,5" d="M1347,-149.91C1347,-149.91 1347,-168.79 1347,-168.79"/>
<polygon fill="black" stroke="black" points="1343.5,-168.79 1347,-178.79 1350.5,-168.79 1343.5,-168.79"/>
</g>
<!-- AppRoutingModule -->
<g id="node18" class="node">
<title>AppRoutingModule</title>
<polygon fill="#8dd3c7" stroke="black" points="152.27,-84.8 149.27,-88.8 128.27,-88.8 125.27,-84.8 23.73,-84.8 23.73,-48.8 152.27,-48.8 152.27,-84.8"/>
<text text-anchor="middle" x="88" y="-62.6" font-family="Times,serif" font-size="14.00">AppRoutingModule</text>
</g>
<!-- AppRoutingModule&#45;&gt;AppModule -->
<g id="edge17" class="edge">
<title>AppRoutingModule&#45;&gt;AppModule</title>
<path fill="none" stroke="black" d="M88,-85.12C88,-108.46 88,-145.8 88,-145.8 88,-145.8 1295.11,-145.8 1295.11,-145.8"/>
<polygon fill="black" stroke="black" points="1295.11,-149.3 1305.11,-145.8 1295.11,-142.3 1295.11,-149.3"/>
</g>
</g>
</svg>
